<svg width="19" height="18" viewBox="0 0 19 18" fill="none" xmlns="http://www.w3.org/2000/svg">
<path d="M4.73304 17.4169H0.82782V5.66602H4.73304V17.4169Z" fill="white"/>
<path d="M2.77653 4.06017H2.75148C1.44061 4.06017 0.593048 3.15626 0.593048 2.0293C0.593048 0.877304 1.46644 0 2.80157 0C4.13748 0 4.96079 0.876522 4.98505 2.0293C4.98505 3.15783 4.13748 4.06017 2.77653 4.06017Z" fill="white"/>
<path d="M18.8145 17.4114H14.9093V11.1239C14.9093 9.54462 14.3443 8.46776 12.9293 8.46776C11.8516 8.46776 11.2091 9.19402 10.9266 9.8968C10.8241 10.1472 10.7975 10.4986 10.7975 10.8492V17.4114H6.89304C6.89304 17.4114 6.94469 6.76402 6.89304 5.66054H10.7983V7.32515C11.3171 6.52454 12.2461 5.38428 14.3192 5.38428C16.8885 5.38428 18.8145 7.06454 18.8145 10.6731V17.4114Z" fill="white"/>
</svg>
